<svg xmlns="http://www.w3.org/2000/svg" width="2417" height="616" fill="none" viewBox="0 0 2417 616"><circle cx="187.818" cy="310.05" r="53.486" fill="#fff"/><path fill="#fff" d="M251.899 149.459c-34.143 12.298-66.365 37.586-86.576 67.727h51.865c43.761-48.624 213.944-59.969 220.427 90.091 0 67.126-95.626 191.926-217.185 94.679h-55.107l4.862 6.483c22.043 32.727 51.588 51.367 86.05 62.74A170.18 170.18 0 0 0 479.74 307.277a170.184 170.184 0 0 0-227.841-157.818"/><circle cx="307.95" cy="307.95" r="282.95" stroke="#fff" stroke-width="50"/><mask id="a" width="1641" height="352" x="776" y="133" fill="#000" maskUnits="userSpaceOnUse"><path fill="#fff" d="M776 133h1641v352H776z"/><path d="M777 484V134h153c38 0 71.33 7.333 100 22s51 35 67 61q24 39 24 92 0 52.5-24 92c-16 26-38.33 46.333-67 61s-62 22-100 22zm65-55h85q39.5 0 68-15c19.33-10 34.17-24 44.5-42 10.67-18 16-39 16-63 0-24.333-5.33-45.333-16-63-10.33-18-25.17-32-44.5-42q-28.5-15-68-15h-85zm293.7 55 157.5-350h64l158 350h-68l-135.5-315.5h26l-135 315.5zm72.5-81 17.5-51h189l17.5 51zm351.51 81V134h65v350zm159.67 0V134h144q46.5 0 79.5 15c22.34 10 39.5 24.333 51.5 43q18 28 18 66.5t-18 66.5c-12 18.333-29.16 32.5-51.5 42.5q-33 14.5-79.5 14.5h-108l29-29.5V484zm229 0-88.5-127h69.5l89 127zm-164-124.5-29-31h105q43.005 0 64.5-18.5c14.67-12.333 22-29.5 22-51.5 0-22.333-7.33-39.5-22-51.5q-21.495-18-64.5-18h-105l29-32zM2035.61 484l157.5-350h64l158 350h-68l-135.5-315.5h26l-135 315.5zm72.5-81 17.5-51h189l17.5 51z"/></mask><path fill="#fff" d="M777 484V134h153c38 0 71.33 7.333 100 22s51 35 67 61q24 39 24 92 0 52.5-24 92c-16 26-38.33 46.333-67 61s-62 22-100 22zm65-55h85q39.5 0 68-15c19.33-10 34.17-24 44.5-42 10.67-18 16-39 16-63 0-24.333-5.33-45.333-16-63-10.33-18-25.17-32-44.5-42q-28.5-15-68-15h-85zm293.7 55 157.5-350h64l158 350h-68l-135.5-315.5h26l-135 315.5zm72.5-81 17.5-51h189l17.5 51zm351.51 81V134h65v350zm159.67 0V134h144q46.5 0 79.5 15c22.34 10 39.5 24.333 51.5 43q18 28 18 66.5t-18 66.5c-12 18.333-29.16 32.5-51.5 42.5q-33 14.5-79.5 14.5h-108l29-29.5V484zm229 0-88.5-127h69.5l89 127zm-164-124.5-29-31h105q43.005 0 64.5-18.5c14.67-12.333 22-29.5 22-51.5 0-22.333-7.33-39.5-22-51.5q-21.495-18-64.5-18h-105l29-32zM2035.61 484l157.5-350h64l158 350h-68l-135.5-315.5h26l-135 315.5zm72.5-81 17.5-51h189l17.5 51z"/><path fill="#fff" d="M777 484h-1v1h1zm0-350v-1h-1v1zm253 22-.46.89zm67 61-.85.524zm0 184 .85.524v-.005zm-255 28h-1v1h1zm153-15-.459-.888-.007.003zm44.5-42-.86-.51-.01.012zm0-126-.87.498.01.009v.01zM995 204l-.466.885.007.003zm-153-15v-1h-1v1zm-65 295h1V134h-2v350zm0-350v1h153v-2H777zm153 0v1c37.87 0 71.04 7.308 99.54 21.89l.46-.89.46-.89C1001.62 140.359 968.13 133 930 133zm100 22-.46.89c28.52 14.588 50.71 34.799 66.61 60.634l.85-.524.85-.524c-16.1-26.165-38.57-46.621-67.39-61.366zm67 61-.85.524C1112.04 243.343 1120 273.822 1120 309h2c0-35.489-8.04-66.343-24.15-92.524zm24 92h-1c0 34.842-7.96 65.324-23.85 91.481l.85.519.85.519c16.11-26.51 24.15-57.361 24.15-92.519zm-24 92-.85-.524c-15.9 25.835-38.09 46.046-66.61 60.634l.46.89.46.89c28.82-14.745 51.29-35.201 67.39-61.366zm-67 61-.46-.89C1001.04 475.692 967.87 483 930 483v2c38.13 0 71.62-7.359 100.46-22.11zm-100 22v-1H777v2h153zm-88-55v1h85v-2h-85zm85 0v1c26.459 0 49.293-5.024 68.466-15.115L995 414l-.466-.885C975.707 423.024 953.207 428 927 428zm68-15 .459.888c19.491-10.083 34.471-24.215 44.911-42.39l-.87-.498-.87-.498c-10.23 17.825-24.92 31.693-44.089 41.61zm44.5-42 .86.51c10.77-18.176 16.14-39.357 16.14-63.51h-2c0 23.847-5.3 44.666-15.86 62.49zm16-63h1c0-24.483-5.37-45.668-16.14-63.517l-.86.517-.86.517c10.56 17.485 15.86 38.299 15.86 62.483zm-16-63 .87-.498c-10.44-18.175-25.42-32.307-44.911-42.39L995 204l-.459.888c19.169 9.916 33.859 23.785 44.089 41.61zM995 204l.466-.885C976.293 193.024 953.459 188 927 188v2c26.207 0 48.707 4.976 67.534 14.885zm-68-15v-1h-85v2h85zm-85 0h-1v240h2V189zm293.7 295-.91-.41-.63 1.41h1.54zm157.5-350v-1h-.64l-.27.59zm64 0 .91-.411-.26-.589h-.65zm158 350v1h1.55l-.64-1.411zm-68 0-.92.395.26.605h.66zm-135.5-315.5v-1h-1.51l.59 1.395zm26 0 .92.393.6-1.393h-1.52zm-135 315.5v1h.66l.26-.607zm5.5-81-.94-.325-.46 1.325h1.4zm17.5-51v-1h-.71l-.23.675zm189 0 .95-.325-.23-.675h-.72zm17.5 51v1h1.4l-.45-1.325zm-296.5 81 .92.41 157.5-350-.92-.41-.91-.41-157.5 350zm157.5-350v1h64v-2h-64zm64 0-.91.411 158 350 .91-.411.91-.411-158-350zm158 350v-1h-68v2h68zm-68 0 .92-.395-135.5-315.5-.92.395-.92.395 135.5 315.5zm-135.5-315.5v1h26v-2h-26zm26 0-.92-.393-135 315.5.92.393.92.393 135-315.5zm-135 315.5v-1h-67v2h67zm5.5-81 .95.325 17.5-51-.95-.325-.94-.325-17.5 51zm17.5-51v1h189v-2h-189zm189 0-.94.325 17.5 51 .94-.325.95-.325-17.5-51zm17.5 51v-1h-224v2h224zm127.51 81h-1v1h1zm0-350v-1h-1v1zm65 0h1v-1h-1zm0 350v1h1v-1zm-65 0h1V134h-2v350zm0-350v1h65v-2h-65zm65 0h-1v350h2V134zm0 350v-1h-65v2h65zm94.67 0h-1v1h1zm0-350v-1h-1v1zm223.5 15-.41.91v.003zm51.5 43 .84-.541zm0 133 .84.548v-.007zm-51.5 42.5.41.916v-.003zm-187.5 14.5-.71-.701L1753 383h2.38zm29-29.5h1v-2.444l-1.71 1.743zm0 131.5v1h1v-1zm164 0-.82.572.3.428h.52zm-88.5-127v-1h-1.91l1.09 1.572zm69.5 0 .82-.574-.3-.426h-.52zm89 127v1h1.92l-1.1-1.574zm-234-124.5-.73.683 1.73 1.85V359.5zm-29-31v-1h-2.3l1.57 1.683zm169.5-18.5-.64-.765-.01.007zm0-103-.64.767.01.007zm-169.5-18-.74-.672-1.51 1.672h2.25zm29-32h1v-2.593l-1.74 1.921zm-65 327h1V134h-2v350zm0-350v1h144v-2h-144zm144 0v1c30.9 0 57.25 4.984 79.09 14.91l.41-.91.42-.91c-22.16-10.074-48.81-15.09-79.92-15.09zm79.5 15-.41.913c22.18 9.929 39.19 24.141 51.07 42.628l.84-.541.84-.541c-12.11-18.846-29.44-33.301-51.93-43.372zm51.5 43-.84.541c11.88 18.481 17.84 40.453 17.84 65.959h2c0-25.828-6.04-48.189-18.16-67.041zm18 66.5h-1c0 25.506-5.96 47.478-17.84 65.959l.84.541.84.541c12.12-18.852 18.16-41.213 18.16-67.041zm-18 66.5-.83-.548c-11.89 18.155-28.9 32.204-51.08 42.135l.41.913.41.913c22.49-10.069 39.81-24.354 51.93-42.865zm-51.5 42.5-.4-.916c-21.84 9.598-48.2 14.416-79.1 14.416v2c31.1 0 57.75-4.848 79.91-14.584zm-79.5 14.5v-1h-108v2h108zm-108 0 .72.701 29-29.5-.72-.701-.71-.701-29 29.5zm29-29.5h-1V484h2V352.5zm0 131.5v-1h-65v2h65zm164 0 .82-.572-88.5-127-.82.572-.82.572 88.5 127zm-88.5-127v1h69.5v-2h-69.5zm69.5 0-.82.574 89 127 .82-.574.82-.574-89-127zm89 127v-1h-70v2h70zm-234-124.5.73-.683-29-31-.73.683-.73.683 29 31zm-29-31v1h105v-2h-105zm105 0v1c28.79 0 50.57-6.189 65.16-18.742l-.66-.758-.65-.758c-14.08 12.114-35.3 18.258-63.85 18.258zm64.5-18.5.65.765c14.92-12.552 22.35-30.019 22.35-52.265h-2c0 21.754-7.23 38.621-21.64 50.735zm22-51.5h1c0-22.574-7.42-40.049-22.36-52.274l-.64.774-.63.774c14.39 11.775 21.63 28.633 21.63 50.726zm-22-51.5.64-.767C1910.94 194.02 1889.16 188 1860.38 188v2c28.55 0 49.78 5.98 63.86 17.767zm-64.5-18v-1h-105v2h105zm-105 0 .74.672 29-32-.74-.672-.74-.672-29 32zm29-32h-1v202.5h2V157zm251.23 327-.92-.41-.63 1.41h1.55zm157.5-350v-1h-.65l-.27.59zm64 0 .91-.411-.27-.589h-.64zm158 350v1h1.54l-.63-1.411zm-68 0-.92.395.26.605h.66zm-135.5-315.5v-1h-1.52l.6 1.395zm26 0 .91.393.6-1.393h-1.51zm-135 315.5v1h.66l.25-.607zm5.5-81-.95-.325-.45 1.325h1.4zm17.5-51v-1h-.72l-.23.675zm189 0 .94-.325-.23-.675h-.71zm17.5 51v1h1.4l-.46-1.325zm-296.5 81 .91.41 157.5-350-.91-.41-.92-.41-157.5 350zm157.5-350v1h64v-2h-64zm64 0-.92.411 158 350 .92-.411.91-.411-158-350zm158 350v-1h-68v2h68zm-68 0 .91-.395-135.5-315.5-.91.395-.92.395 135.5 315.5zm-135.5-315.5v1h26v-2h-26zm26 0-.92-.393-135 315.5.92.393.91.393 135-315.5zm-135 315.5v-1h-67v2h67zm5.5-81 .94.325 17.5-51-.94-.325-.95-.325-17.5 51zm17.5-51v1h189v-2h-189zm189 0-.95.325 17.5 51 .95-.325.94-.325-17.5-51zm17.5 51v-1h-224v2h224z" mask="url(#a)"/></svg>