<svg xmlns="http://www.w3.org/2000/svg" width="2416" height="616" fill="none" viewBox="0 0 2416 616"><circle cx="187.818" cy="310.05" r="53.486" fill="#12556a"/><path fill="#1a5c6c" d="M251.898 149.459c-34.143 12.298-66.365 37.586-86.576 67.727h51.865c43.761-48.624 213.944-59.969 220.427 90.091 0 67.126-95.626 191.926-217.185 94.679h-55.107l4.862 6.483c22.043 32.727 51.588 51.367 86.05 62.74a170.18 170.18 0 0 0 223.505-163.902 170.184 170.184 0 0 0-227.841-157.818"/><circle cx="307.95" cy="307.95" r="282.95" stroke="#12556a" stroke-width="50"/><path fill="#12556a" d="M777 484V134h153c38 0 71.33 7.333 100 22s51 35 67 61q24 39 24 92 0 52.5-24 92c-16 26-38.33 46.333-67 61s-62 22-100 22zm65-55h85q39.5 0 68-15c19.33-10 34.17-24 44.5-42 10.67-18 16-39 16-63 0-24.333-5.33-45.333-16-63-10.33-18-25.17-32-44.5-42q-28.5-15-68-15h-85zm293.7 55 157.5-350h64l158 350h-68l-135.5-315.5h26l-135 315.5zm72.5-81 17.5-51h189l17.5 51zm351.51 81V134h65v350zm159.67 0V134h144q46.5 0 79.5 15c22.34 10 39.5 24.333 51.5 43q18 28 18 66.5t-18 66.5c-12 18.333-29.16 32.5-51.5 42.5q-33 14.5-79.5 14.5h-108l29-29.5V484zm229 0-88.5-127h69.5l89 127zm-164-124.5-29-31h105q43.005 0 64.5-18.5c14.67-12.333 22-29.5 22-51.5 0-22.333-7.33-39.5-22-51.5q-21.495-18-64.5-18h-105l29-32zM2035.61 484l157.5-350h64l158 350h-68l-135.5-315.5h26l-135 315.5zm72.5-81 17.5-51h189l17.5 51z"/></svg>